<?xml version="1.0" encoding="UTF-8"?>
<!DOCTYPE svg PUBLIC "-//W3C//DTD SVG 1.1//EN" "http://www.w3.org/Graphics/SVG/1.1/DTD/svg11.dtd">
<!-- Creator: CorelDRAW X7 -->
<svg xmlns="http://www.w3.org/2000/svg" xml:space="preserve" width="400px" height="121px" version="1.1" style="shape-rendering:geometricPrecision; text-rendering:geometricPrecision; image-rendering:optimizeQuality; fill-rule:evenodd; clip-rule:evenodd"
viewBox="0 0 3996539 1212736"
 xmlns:xlink="http://www.w3.org/1999/xlink">
 <defs>
  <style type="text/css">
   <![CDATA[
    .str3 {stroke:#CC9C8F;stroke-width:6920.96}
    .str0 {stroke:#CC9C8F;stroke-width:6920.96;stroke-linejoin:round}
    .str2 {stroke:#CC9C8F;stroke-width:3757.06;stroke-linejoin:round}
    .str1 {stroke:#CC9C8F;stroke-width:6920.96;stroke-linecap:round;stroke-linejoin:round}
    .fil1 {fill:none;fill-rule:nonzero}
    .fil4 {fill:#2A2A26;fill-rule:nonzero}
    .fil3 {fill:#3F2649;fill-rule:nonzero}
    .fil6 {fill:#A4DAF4;fill-rule:nonzero}
    .fil7 {fill:#E25A5F;fill-rule:nonzero}
    .fil5 {fill:#F4A448;fill-rule:nonzero}
    .fil0 {fill:#F7C5B9;fill-rule:nonzero}
    .fil2 {fill:white;fill-rule:nonzero}
   ]]>
  </style>
 </defs>
 <g id="Warstwa_x0020_1">
  <metadata id="CorelCorpID_0Corel-Layer"/>
  <g id="_1865504856528">
   <path class="fil0 str0" d="M3040804 929842l125322 0 0 -36147c0,-34633 28336,-62968 62969,-62968l78866 0c34633,0 62969,28335 62969,62968l-119611 1062 200993 0c20197,0 36723,14301 36723,31780l0 1c0,17478 -16526,31779 -36723,31779l-80934 0 -2 94 43787 0 0 62147 -44233 0 0 58565c0,1385 -1122,2507 -2506,2507l-199791 0c-1384,0 -2507,-1122 -2507,-2507l0 -59939 -126091 0 769 -89342z"/>
   <line class="fil1 str1" x1="3112311" y1="980888" x2="3112311" y2= "926383" />
   <path class="fil1 str1" d="M3112311 926383c0,-13640 -11160,-24800 -24801,-24800"/>
   <path class="fil1 str1" d="M3112311 926383c0,-13640 -11160,-24800 -24801,-24800"/>
   <path class="fil1 str1" d="M3087510 901583c-13640,0 -24801,11160 -24801,24800"/>
   <line class="fil1 str1" x1="3086164" y1="980888" x2="3086164" y2= "926383" />
   <path class="fil1 str1" d="M3086164 926383c0,-13640 -11160,-24800 -24800,-24800"/>
   <path class="fil1 str1" d="M3061364 901583c-13640,0 -24801,11160 -24801,24800"/>
   <path class="fil1 str1" d="M3061364 901583c-13640,0 -24801,11160 -24801,24800"/>
   <line class="fil1 str1" x1="3138458" y1="980888" x2="3138458" y2= "926383" />
   <path class="fil1 str1" d="M3138458 926383c0,-13640 -11160,-24800 -24801,-24800"/>
   <line class="fil1 str1" x1="3113657" y1="901583" x2="3113657" y2= "901583" />
   <line class="fil1 str1" x1="3113657" y1="901583" x2="3113657" y2= "901583" />
   <path class="fil1 str1" d="M3113657 901583c-13640,0 -24801,11160 -24801,24800"/>
   <polygon class="fil0 str0" points="3420117,916869 3420117,934525 "/>
   <polygon class="fil0 str0" points="3430711,913692 3430711,940175 "/>
   <polygon class="fil0 str0" points="3397835,977135 3397835,1003619 "/>
   <polygon class="fil0 str0" points="3288400,831103 3288400,848758 "/>
   <polygon class="fil0 str0" points="3310292,831103 3310292,848758 "/>
   <polygon class="fil0 str0" points="3299346,831103 3299346,854408 "/>
   <polygon class="fil2 str0" points="3051788,1050450 2987175,1050450 2987175,891973 3051788,891973 "/>
   <path class="fil3 str0" d="M5024 858669c558,0 2981757,-1629 2981757,-1629l2758 226934c0,0 -2946578,1630 -2986078,1630l0 0 1563 -226935z"/>
   <path class="fil3 str2" d="M3036695 1018880c0,8531 -6916,15446 -15447,15446 -8530,0 -15446,-6915 -15446,-15446 0,-8531 6916,-15447 15446,-15447 8531,0 15447,6916 15447,15447z"/>
   <polygon class="fil4 str0" points="3218911,1209276 3192176,1196742 3608157,309474 3634893,322009 "/>
   <path class="fil5" d="M3767086 351604l4729 16450c696,2420 2701,4310 5268,4966l17452 4457c7370,1883 7370,11740 0,13622l-17452 4458c-2567,656 -4572,2546 -5268,4965l-4729 16451c-1998,6948 -12454,6948 -14452,0l-4729 -16451c-695,-2419 -2701,-4309 -5268,-4965l-17451 -4458c-7371,-1882 -7371,-11739 0,-13622l17451 -4457c2567,-656 4573,-2546 5268,-4966l4729 -16450c1998,-6948 12454,-6948 14452,0z"/>
   <path class="fil6" d="M3508590 520165c-41175,-19022 -93413,-36006 -139374,-28484 -15096,2471 -29956,10797 -29470,28048 527,18742 17551,35086 30834,46327 35993,30457 83414,47734 128800,58443 43514,10267 91560,13760 134014,-2771 19524,-7603 39228,-19517 52007,-36435 14903,-19729 18136,-45535 15537,-69573 -5208,-48167 -38526,-86616 -70346,-120579 -36285,-38729 -76766,-73950 -121684,-102352 -43906,-27763 -94459,-52882 -147218,-55564 -37407,-1902 -89117,14802 -84912,61141 4618,50887 43430,82972 83542,109127 45039,29367 95683,52271 146245,70325 50568,18055 104541,32312 158315,35657 46241,2877 96356,-4889 131187,-37949 33686,-31973 39138,-78980 23437,-121377 -18279,-49359 -55325,-85923 -94747,-118959 -38726,-32452 -84047,-56771 -134985,-61914 -17964,-1813 -45753,-3606 -55013,15923 -8046,16972 3293,37421 14902,49523 30579,31878 72229,48063 116331,48142 38210,70 81038,-12659 103772,-45440 27198,-39217 12580,-89268 -11871,-125773 -8592,-12829 -19120,-28729 -36101,-29455 -2452,-105 -4544,3090 -2988,5207 5015,6824 18793,3689 25200,109 14745,-8241 16654,-25617 19347,-40616 782,-4356 -5886,-6224 -6673,-1840 -1773,9870 -2606,21182 -8599,29560 -2843,3975 -6555,6833 -11223,8376 -1958,646 -10770,2694 -12076,918 -996,1736 -1992,3472 -2988,5207 18382,786 32037,27539 39683,41746 10221,18992 17377,40844 16072,62644 -2581,43130 -37697,70019 -77288,78796 -37873,8397 -80174,2584 -113924,-16744 -16859,-9656 -37561,-25592 -44332,-44536 -3820,-10688 -4536,-24308 6281,-31107 9792,-6155 25965,-4909 37092,-4094 47274,3460 92104,25388 128391,55124 35247,28884 68343,59419 89771,100380 20918,39985 26809,89269 -3716,126092 -27296,32928 -70842,44893 -112113,45665 -46403,867 -93289,-9699 -137651,-22501 -45169,-13035 -88892,-30710 -130793,-51994 -38817,-19717 -80674,-41675 -109519,-75133 -15645,-18148 -26147,-40150 -26460,-64526 -291,-22659 20812,-39628 40914,-45311 44035,-12447 93800,5194 133180,24344 41274,20072 79390,46114 114149,76011 33196,28552 65681,60474 91522,95960 25692,35280 45426,87218 22231,129005 -20532,36988 -69620,51502 -109113,53023 -39898,1537 -79520,-7508 -117004,-20532 -38105,-13239 -83321,-32884 -105964,-68358 -33024,-51738 61972,-38710 84178,-33711 23237,5231 46094,12792 67717,22782 4017,1855 7537,-4108 3494,-5977z"/>
   <path class="fil6" d="M3314204 632825c4162,15473 19732,27072 31459,36866 13848,11566 27977,22635 43459,31963 33136,19967 71696,33078 109999,38329 32966,4520 69700,-240 96199,-21984 30648,-25148 24535,-62181 13967,-96059 -11588,-37143 -41065,-66059 -73045,-86647 -3756,-2418 -7230,3570 -3493,5976 35244,22690 62765,53503 73330,94716 6135,23932 10243,48921 -7367,69190 -12282,14137 -30449,22156 -48340,26414 -42981,10230 -93315,-4416 -132482,-22508 -18875,-8719 -36673,-19721 -53021,-32561 -14470,-11364 -38982,-26913 -43991,-45535 -1156,-4296 -7834,-2473 -6674,1840z"/>
   <path class="fil2" d="M3936122 470168l8664 31973c1274,4702 4948,8376 9651,9650l31973 8665c13505,3659 13505,22817 0,26476l-31973 8664c-4703,1275 -8377,4949 -9651,9652l-8664 31973c-3659,13504 -22817,13504 -26477,0l-8664 -31973c-1274,-4703 -4948,-8377 -9651,-9652l-31973 -8664c-13505,-3659 -13505,-22817 0,-26476l31973 -8665c4703,-1274 8377,-4948 9651,-9650l8664 -31973c3660,-13505 22818,-13505 26477,0z"/>
   <path class="fil2" d="M3936122 470168l8664 31973c1274,4702 4948,8376 9651,9650l31973 8665c13505,3659 13505,22817 0,26476l-31973 8664c-4703,1275 -8377,4949 -9651,9652l-8664 31973c-3659,13504 -22817,13504 -26477,0l-8664 -31973c-1274,-4703 -4948,-8377 -9651,-9652l-31973 -8664c-13505,-3659 -13505,-22817 0,-26476l31973 -8665c4703,-1274 8377,-4948 9651,-9650l8664 -31973c3660,-13505 22818,-13505 26477,0z"/>
   <path class="fil7" d="M3885822 222065l2422 8939c357,1315 1384,2342 2699,2699l8939 2422c3776,1023 3776,6379 0,7402l-8939 2422c-1315,357 -2342,1384 -2699,2699l-2422 8939c-1023,3776 -6379,3776 -7402,0l-2422 -8939c-357,-1315 -1384,-2342 -2699,-2699l-8939 -2422c-3775,-1023 -3775,-6379 0,-7402l8939 -2422c1315,-357 2342,-1384 2699,-2699l2422 -8939c1023,-3776 6379,-3776 7402,0z"/>
   <path class="fil2" d="M3215479 357222l2829 10441c417,1536 1616,2736 3152,3152l10442 2829c4409,1195 4409,7452 0,8647l-10442 2829c-1536,416 -2735,1616 -3152,3152l-2829 10441c-1195,4410 -7451,4410 -8647,0l-2829 -10441c-416,-1536 -1616,-2736 -3152,-3152l-10441 -2829c-4410,-1195 -4410,-7452 0,-8647l10441 -2829c1536,-416 2736,-1616 3152,-3152l2829 -10441c1196,-4411 7452,-4411 8647,0z"/>
   <path class="fil2" d="M3215479 357222l2829 10441c417,1536 1616,2736 3152,3152l10442 2829c4409,1195 4409,7452 0,8647l-10442 2829c-1536,416 -2735,1616 -3152,3152l-2829 10441c-1195,4410 -7451,4410 -8647,0l-2829 -10441c-416,-1536 -1616,-2736 -3152,-3152l-10441 -2829c-4410,-1195 -4410,-7452 0,-8647l10441 -2829c1536,-416 2736,-1616 3152,-3152l2829 -10441c1196,-4411 7452,-4411 8647,0z"/>
   <path class="fil7" d="M3376584 356267l7035 25964c1035,3819 4019,6802 7838,7838l25964 7035c10967,2972 10967,18529 0,21501l-25964 7036c-3819,1034 -6803,4018 -7838,7837l-7035 25964c-2972,10967 -18529,10967 -21501,0l-7036 -25964c-1034,-3819 -4018,-6803 -7837,-7837l-25965 -7036c-10966,-2972 -10966,-18529 0,-21501l25965 -7035c3819,-1036 6803,-4019 7837,-7838l7036 -25964c2972,-10967 18529,-10967 21501,0z"/>
   <path class="fil2" d="M3450374 149440l3236 11943c476,1758 1849,3130 3606,3606l11943 3236c5045,1367 5045,8523 0,9891l-11943 3236c-1757,476 -3130,1848 -3606,3605l-3236 11943c-1367,5045 -8523,5045 -9890,0l-3237 -11943c-476,-1757 -1848,-3129 -3605,-3605l-11943 -3236c-5045,-1368 -5045,-8524 0,-9891l11943 -3236c1757,-476 3129,-1848 3605,-3606l3237 -11943c1367,-5045 8523,-5045 9890,0z"/>
   <path class="fil2" d="M3450374 149440l3236 11943c476,1758 1849,3130 3606,3606l11943 3236c5045,1367 5045,8523 0,9891l-11943 3236c-1757,476 -3130,1848 -3606,3605l-3236 11943c-1367,5045 -8523,5045 -9890,0l-3237 -11943c-476,-1757 -1848,-3129 -3605,-3605l-11943 -3236c-5045,-1368 -5045,-8524 0,-9891l11943 -3236c1757,-476 3129,-1848 3605,-3606l3237 -11943c1367,-5045 8523,-5045 9890,0z"/>
   <path class="fil2" d="M3859614 102593l1337 4933c197,726 764,1293 1489,1489l4934 1337c2083,565 2083,3520 0,4085l-4934 1337c-725,196 -1292,763 -1489,1489l-1337 4933c-564,2084 -3520,2084 -4085,0l-1337 -4933c-196,-726 -763,-1293 -1489,-1489l-4933 -1337c-2083,-565 -2083,-3520 0,-4085l4933 -1337c726,-196 1293,-763 1489,-1489l1337 -4933c565,-2084 3521,-2084 4085,0z"/>
   <path class="fil2" d="M3859614 102593l1337 4933c197,726 764,1293 1489,1489l4934 1337c2083,565 2083,3520 0,4085l-4934 1337c-725,196 -1292,763 -1489,1489l-1337 4933c-564,2084 -3520,2084 -4085,0l-1337 -4933c-196,-726 -763,-1293 -1489,-1489l-4933 -1337c-2083,-565 -2083,-3520 0,-4085l4933 -1337c726,-196 1293,-763 1489,-1489l1337 -4933c565,-2084 3521,-2084 4085,0z"/>
   <path class="fil2" d="M3511086 348939l1336 4934c197,726 764,1292 1490,1489l4933 1337c2084,564 2084,3520 0,4085l-4933 1337c-726,196 -1293,763 -1490,1489l-1336 4933c-565,2084 -3521,2084 -4085,0l-1337 -4933c-196,-726 -763,-1293 -1489,-1489l-4933 -1337c-2084,-565 -2084,-3521 0,-4085l4933 -1337c726,-197 1293,-763 1489,-1489l1337 -4934c564,-2083 3520,-2083 4085,0z"/>
   <path class="fil2" d="M3511086 348939l1336 4934c197,726 764,1292 1490,1489l4933 1337c2084,564 2084,3520 0,4085l-4933 1337c-726,196 -1293,763 -1490,1489l-1336 4933c-565,2084 -3521,2084 -4085,0l-1337 -4933c-196,-726 -763,-1293 -1489,-1489l-4933 -1337c-2084,-565 -2084,-3521 0,-4085l4933 -1337c726,-197 1293,-763 1489,-1489l1337 -4934c564,-2083 3520,-2083 4085,0z"/>
   <path class="fil7" d="M3718884 651163l1337 4934c197,725 763,1292 1489,1489l4933 1337c2084,564 2084,3520 0,4085l-4933 1337c-726,196 -1292,763 -1489,1489l-1337 4933c-565,2084 -3521,2084 -4085,0l-1337 -4933c-197,-726 -764,-1293 -1489,-1489l-4934 -1337c-2083,-565 -2083,-3521 0,-4085l4934 -1337c725,-197 1292,-764 1489,-1489l1337 -4934c564,-2083 3520,-2083 4085,0z"/>
   <polygon class="fil4 str3" points="3548866,505500 3514337,579146 "/>
   <polygon class="fil4 str3" points="3487602,566612 3522131,492966 "/>
   <polygon class="fil4 str3" points="3400756,751767 3334558,892964 3336443,893848 3366755,893848 3427491,764301 "/>
   <path class="fil5" d="M3598115 2356l2138 7437c315,1094 1221,1949 2382,2245l7889 2015c3333,852 3333,5308 0,6159l-7889 2015c-1161,296 -2067,1151 -2382,2245l-2138 7437c-903,3141 -5630,3141 -6533,0l-2138 -7437c-314,-1094 -1221,-1949 -2381,-2245l-7890 -2015c-3332,-851 -3332,-5307 0,-6159l7890 -2015c1160,-296 2067,-1151 2381,-2245l2138 -7437c903,-3141 5630,-3141 6533,0z"/>
   <polygon class="fil2 str0" points="3573408,453151 3546673,440617 3608157,309474 3634893,322009 "/>
  </g>
 </g>
</svg>
