<svg xmlns="http://www.w3.org/2000/svg" width="20" height="20" viewBox="0 0 940977 940977" shape-rendering="geometricPrecision" text-rendering="geometricPrecision" image-rendering="optimizeQuality" fill-rule="evenodd" clip-rule="evenodd"><defs><style type="text/css"><![CDATA[
    .fil1 {fill:none}
    .fil0 {fill:#fff;fill-rule:nonzero}
   ]]></style></defs><g id="_2723998441792"><path class="fil0" d="M5476 454780c2697-161790 151441-303490 313232-298091 77519-3593 150392 30142 209766 77526-25338 28793-51579 56529-79618 82469-71371-49327-172881-63424-244258-6444-102113 70618-106757 237358-8547 313375 95518 86669 276046 43642 302439-89067-59827-900-119808 0-179635-1945-147-35690-299-71379-147-107059 100010-307 200022-455 300186 302 5995 83967-5097 173325-56679 242755-78122 109910-234962 141999-357315 94917-122805-46783-209769-176491-199424-308738zm751376-119348h89214c154 29832 302 59825 603 89657 29843 299 59835 299 89666 607v89208c-29831 308-59676 458-89666 757-301 29982-449 59823-603 89668h-89362c-299-29845-299-59686-600-89516-29841-302-59823-601-89664-909v-89208c29841-308 59673-459 89664-607 151-29984 448-59825 748-89657z"/><rect class="fil1" width="940977" height="940977"/></g></svg>