<svg xmlns="http://www.w3.org/2000/svg" width="20" height="20" viewBox="0 0 2007986 2007986" shape-rendering="geometricPrecision" text-rendering="geometricPrecision" image-rendering="optimizeQuality" fill-rule="evenodd" clip-rule="evenodd"><defs><style type="text/css"><![CDATA[
    .fil1 {fill:none}
    .fil0 {fill:white;fill-rule:nonzero}
   ]]></style></defs><g id="_2724588861680"><path class="fil0" d="M1591700 314173h-1175706c-56185 0-101834 44532-101834 99436v1180654c0 54949 45649 99554 101834 99554h1175706c56276 0 102122-44605 102122-99554v-1180654c0-54904-45846-99436-102122-99436zm-868351 1175638h-204640v-658407h204640v658407zm-102272-748410c-65590 0-118678-53180-118678-118683 0-65438 53088-118604 118678-118604 65420 0 118577 53166 118577 118604 0 65503-53157 118683-118577 118683zm868711 748410h-204489v-320184c0-76385-1405-174594-106336-174594-106487 0-122792 83185-122792 169061v325717h-204480v-658407h196294v89958h2722c27302-51761 94059-106345 193608-106345 207217 0 245473 136374 245473 313640v361154z"/><rect class="fil1" width="2007986" height="2007986"/></g></svg>