<svg xmlns="http://www.w3.org/2000/svg" width="20" height="20" viewBox="0 0 898154 898154" shape-rendering="geometricPrecision" text-rendering="geometricPrecision" image-rendering="optimizeQuality" fill-rule="evenodd" clip-rule="evenodd"><defs><style type="text/css"><![CDATA[
    .fil1 {fill:none}
    .fil0 {fill:#545454;fill-rule:nonzero}
   ]]></style></defs><g id="_2724584520064"><path class="fil0" d="M842276 205187c-28934 12832-60028 21506-92666 25405 33309-19968 58895-51584 70940-89261-31176 18492-65703 31916-102454 39150-29428-31355-71362-50946-117763-50946-89104 0-161341 72235-161341 161335 0 12644 1426 24958 4178 36766-134086-6726-252971-70961-332542-168571-13890 23829-21846 51541-21846 81109 0 55976 28482 105359 71776 134290-26447-836-51329-8093-73078-20180-14 678-14 1351-14 2030 0 78170 55613 143375 129417 158198-13536 3690-27789 5665-42502 5665-10396 0-20504-1016-30358-2893 20533 64087 80118 110739 150715 112038-55215 43271-124780 69069-200371 69069-13025 0-25867-767-38489-2264 71401 45786 156207 72496 247320 72496 296754 0 459040-245849 459040-459048 0-6991-158-13947-470-20871 31525-22746 58875-51162 80508-83517z"/><rect class="fil1" width="898154" height="898154"/></g></svg>