<svg xmlns="http://www.w3.org/2000/svg" width="50" height="50" viewBox="0 0 3422536 3406275" shape-rendering="geometricPrecision" text-rendering="geometricPrecision" image-rendering="optimizeQuality" fill-rule="evenodd" clip-rule="evenodd"><defs><style type="text/css"><![CDATA[
    .fil0 {fill:white;fill-rule:nonzero}
   ]]></style></defs><path class="fil0" d="M3422536 3391490l-22174-138970c-310470-2013605-1431109-3097285-3357490-3248086l-41397-4434v659375c1575998 137491 2492616 1034891 2748380 2693677l7393 38438h665288zm-3422536-443524c0 127145 44351 233591 134533 323772 90186 88707 198111 134537 323776 134537 127145 0 235066-45830 323772-134537 90186-90181 134537-196627 134537-323772 0-127144-44351-235070-134537-323772-88706-90186-196627-134537-323772-134537-125665 0-233590 44351-323776 134537-90182 88702-134533 196628-134533 323772zm1475-1822889v663809c895924 130103 1434068 665288 1615915 1602604h669722l-10351-56177c-233587-1321709-983147-2056480-2250149-2207282l-25137-2954z" id="Warstwa_x0020_1"/></svg>