<svg xmlns="http://www.w3.org/2000/svg" width="20" height="20" viewBox="0 0 444838 444838" shape-rendering="geometricPrecision" text-rendering="geometricPrecision" image-rendering="optimizeQuality" fill-rule="evenodd" clip-rule="evenodd"><defs><style type="text/css"><![CDATA[
    .fil1 {fill:none}
    .fil0 {fill:#fff}
   ]]></style></defs><g id="_2724584465152"><path class="fil0" d="M182598 298482c0-23918-93-47835 86-71749 33-4033-1107-5293-5141-5129-7451 302-14925-31-22388 142-3021 75-4134-762-4101-3962 151-14922 136-29853 15-44778-27-2872 838-3815 3741-3752 7630 176 15276-213 22892 164 4414 217 5329-1352 5237-5448-267-11357-267-22732-17-34090 303-13872 4025-26824 12289-38103 10456-14285 25322-20815 42472-21581 17615-782 35274-347 52910-537 2458-28 3192 851 3182 3241-79 15093-95 30191 10 45286 24 2685-852 3507-3488 3464-8483-131-16965-67-25442-44-11290 35-18048 5843-18755 17017-567 8960-153 17972-361 26958-77 3200 1826 2981 3945 2978 12888-19 25783 128 38671-92 3784-66 5032 804 4598 4787-1621 14997-3015 30024-4300 45057-293 3393-1842 4040-4889 3989-10169-156-20347-108-30524-43-7309 43-6599-1071-6599 6382-34 46815-98 93632 104 140446 21 4944-1243 6171-6135 6084-17467-322-34943-338-52411 8-4922 97-5732-1573-5694-5963 188-23577 93-47151 93-70732z"/><rect class="fil1" width="444838" height="444838"/></g></svg>