<svg xmlns="http://www.w3.org/2000/svg" width="200" height="110" viewBox="0 0 19986010 10956223" shape-rendering="geometricPrecision" text-rendering="geometricPrecision" image-rendering="optimizeQuality" fill-rule="evenodd" clip-rule="evenodd"><defs><style type="text/css"><![CDATA[
    .fil2 {fill:#3A3A3A}
    .fil3 {fill:#D46D39}
    .fil1 {fill:#3A3A3A;fill-rule:nonzero}
    .fil0 {fill:white;fill-rule:nonzero}
   ]]></style></defs><g id="_2680719466944"><path class="fil0" d="M4320169 10956223c-59449 0-118741-16352-170867-48557-95669-59396-153675-164016-153386-276405l4882-1973312h-2142473c-1319898 0-1858325-538374-1858325-1858167v-4941457c0-1319898 538427-1858325 1858325-1858325h16377287c1463915 0 1750398 681393 1750398 1858325v4941457c0 1319793-538479 1858167-1858377 1858167h-9129368l-4533293 2264284c-45669 22678-95302 33990-144803 33990z"/><path class="fil1" d="M4320169 10956223c-59449 0-118741-16352-170867-48557-95669-59396-153675-164016-153386-276405l4882-1973312h-2142473c-1319898 0-1858325-538374-1858325-1858167v-4941457c0-1319898 538427-1858325 1858325-1858325h16377287c1463915 0 1750398 681393 1750398 1858325v4941457c0 1319793-538479 1858167-1858377 1858167h-9129368l-4533293 2264284c-45669 22678-95302 33990-144803 33990zm-2461844-10307744c-961105 0-1209872 248741-1209872 1209846v4941457c0 961000 248767 1209740 1209872 1209740h2467487c86142 0 168688 34279 229581 95329 60813 60945 94855 143570 94645 229738l-4409 1772472 4131244-2063339c45014-22441 94673-34200 144935-34200h9205825c961026 0 1209872-248740 1209872-1209740v-4941457c0-521655-62231-824333-201576-981446-87165-98058-275066-228400-900317-228400h-16377287z"/><path class="fil2" d="M3288198 5536366h-1210424v-2999378c-123149-20210-241417-30341-354830-30341-110210 0-225276 10131-345145 30341v3636598h1910399c9790-57244 16194-112022 19448-164279 3176-52362 4882-105643 4882-159423 0-47113-1706-96851-4882-149187-3254-52362-9658-106982-19448-164331zm-24305-1709611c0 43885 2441 90263 7323 139108 4829 48898 12126 95303 21890 139108h325644v2068615c116640 20262 228452 30289 335434 30289 110131 0 223622-10027 340210-30289v-2614889h-1001288c-19502 87743-29213 177035-29213 268058zm432626-687797c64777 3334 123150 5014 175013 5014 55119 0 114253-1680 177403-5014 63254-3307 122336-10131 177507-20315 9658-57270 16089-114567 19396-171942 3202-57323 4882-112940 4882-166904 0-57296-1680-113806-4882-169423-3307-55617-9738-112021-19396-169449-55171-10079-115119-17664-179948-22730-64882-5118-124778-7611-179843-7611-51864 0-109371 2493-172521 7611-63228 5066-122362 12651-177428 22730-19475 118058-29186 230972-29186 338872 0 111260 9711 224279 29186 338846 55066 10184 114987 17008 179817 20315zm3050270 394463c-63176-3307-119055-5118-167638-5118-61627 0-123255 2572-184751 7638-61601 5118-119922 12651-175040 22756l-539503 1947223-549319-1947223c-55170-13491-115118-21942-179921-25276-64830-3307-129607-5118-194437-5118-48609 0-106142 1811-172520 5118-66457 3334-138530 13517-216352 30315l938139 2604784c55118 13491 113491 21969 175066 25328 61523 3360 116693 4882 165276 4882 45355 0 102048-1522 170158-4882 68032-3359 132809-10131 194436-20262l952732-2609850c-80997-16798-153071-26981-216326-30315zm2403786 720737c-48583-153439-120761-285775-216326-397035-95617-111313-211444-198924-347534-262993-136168-64016-291654-96168-466667-96168-201025 0-376747 36299-527456 108819-150683 72520-277087 171129-379187 295880-102074 124725-179082 271444-230893 440001-51838 168662-77796 348978-77796 541157 0 195643 25092 376037 75355 541235 50289 165302 128005 307717 233334 427455 105302 119528 241444 213202 408374 280657 166850 67375 366982 101102 600342 101102 317534 0 602758-50551 855541-151732-3307-107953-17874-209056-43728-303466-25984-94383-56719-175223-92362-242704-103806 40263-213203 71733-328190 93413-115066 21889-227691 32913-337770 32913-201024 0-362993-45459-486169-136536-123150-91024-191234-237743-204121-440053h1613862c6431-36982 12179-86772 17061-149161 4777-62389 7270-125538 7270-189685 0-175198-24331-339608-72940-493099zm-1560450 331261c16168-171917 66404-305172 150735-399555 84226-94331 207376-141601 369450-141601 142573 0 253491 49763 332941 149186 79396 99502 122336 230132 128897 391970h-982023z"/><path class="fil3" d="M11785202 5485762c-113492 40394-215460 69082-306169 85985-90788 16798-196116 25223-316012 25223-670762 0-1006249-411313-1006249-1234071 0-414726 83465-727430 250394-938166 166825-210735 405907-316168 716879-316168 119974 0 223701 8477 311129 25275 87533 16903 188006 45486 301471 85932 38871-97743 74593-194672 106982-290735 32362-96090 51706-194778 58320-295907-152362-64016-294148-106168-425355-126483-131287-20184-274699-30315-430238-30315-262572 0-496773 47244-702390 141680-205906 94410-379161 225880-520132 394463-141024 168609-248767 368426-323308 599346-74515 231024-111759 481392-111759 751078 0 269790 35617 519266 106982 748532 71155 229397 177402 427402 318347 594306 140893 166851 315119 296772 522442 389450 207429 92598 448952 139081 724385 139081 155513 0 300474-10052 435120-30393 134357-20158 285827-62205 454542-126405-13019-101181-33465-201470-60841-300919-27401-99476-62388-196405-104540-290789zm1774177-1987800c-100262 0-189423 13570-267192 40472-77769 27087-144226 59948-199370 98688-55066 38741-101287 79161-138452 121366-37428 42152-67350 78346-90053 108714v-1390870c-58242-10131-116457-16824-174961-20210-58242-3307-115119-5066-170184-5066-55066 0-111680 1759-170079 5066-58426 3386-115014 10079-170185 20210v3702241c58426 10131 115932 16798 172625 20157 56694 3439 112573 5145 167639 5145 55065 0 111942-1706 170184-5145 58504-3359 116719-10026 174961-20157v-1375621c0-141654 15459-256221 46378-343964 30761-87690 69449-155906 116483-204830 47087-48898 99712-81785 157953-98688 58426-16771 115119-25223 170263-25223 132835 0 226878 48872 282022 146667 55066 97822 82389 237665 82389 419844v1481815c58504 10131 116746 16798 175223 20157 58242 3439 114856 5145 170001 5145 55066 0 112047-1706 170289-5145 58215-3359 116641-10026 174961-20157v-1674073c0-347219-72152-601839-216483-763755-144043-161812-355461-242783-634412-242783zm2036961 0c-123150 0-256090 11942-398767 35459-142415 23622-285093 60709-427613 111260 0 107954 11234 200605 34095 278216 22598 77586 56614 160185 102100 247823 197559-70867 384016-106247 558899-106247 80919 0 154620 5065 221076 15170 66536 10079 122337 29580 167822 58189 45486 28662 80840 68268 106877 118820 25958 50603 38977 116325 38977 197297v60630c-113570-10079-217297-15145-311156-15145-129738 0-259239 14384-388899 43045-129659 28662-247034 75827-352363 141575-105249 65775-191260 153492-257612 263019-66562 109607-99659 245277-99659 407193 0 161811 26667 298400 80210 409712 53517 111208 129659 202284 228505 273072 98740 70814 217008 121444 354804 151654 137717 30472 289161 45564 454463 45564 204095 0 387376-16903 549319-50551 161943-33622 299660-69082 413229-106247v-1517301c0-370919-94672-640605-284462-809293-189528-168504-452941-252914-789845-252914zm403466 2144572c-35617 6798-77769 14279-126326 22704-48635 8399-97271 12651-145853 12651-42127 0-91575-2520-148295-7585-56693-5066-110210-18636-160394-40525-50184-21680-93228-56405-128767-103623-35617-47139-53622-114541-53622-202231 0-131575 46221-226825 138714-285802 92310-58976 217718-88609 376511-88609 35617 0 76220 2677 121706 7691 45223 5065 87349 10945 126326 17690v667639zm2425597 154095c-9685-68924-26063-135459-48662-199659-35617 6877-77034 14383-123858 22704-47035 8477-94778 12729-143413 12729-61601 0-115118-6771-160604-20157-45223-13649-83281-38872-114016-75880-30919-37191-54436-87795-70525-151864-16378-63937-24252-148294-24252-252782v-1026749h588033c9659-53937 16168-102808 19527-146719 3176-43806 4882-89292 4882-136536 0-43806-1706-85984-4882-126457-3359-40499-9868-85932-19527-136562h-588033v-763729h-111943l-909005 1208822 24410 101181h315854v1183442c0 323833 77926 557298 233386 700448 155434 143307 380841 215014 675619 215014 158793 0 312678-18636 461891-55696 3149-23596 5616-48006 7139-73255 1811-25223 2519-56509 2519-93570 0-53884-4698-115486-14540-184725z"/></g></svg>